<svg width="29" height="30" viewBox="0 0 29 30" fill="none" xmlns="http://www.w3.org/2000/svg">
<path d="M0 29.3625H29L26.5935 4.98123C26.5756 2.93441 26.6167 1.8009 26.6167 1.8009C26.2416 1.9471 25.6834 2.00338 25.0149 2.00338C24.9018 2.00338 24.7834 2.00093 24.663 1.99787C24.6606 0.719993 24.6819 0 24.6819 0C24.1014 0.966516 22.8621 1.21243 21.4494 1.21243C19.9824 1.21243 18.329 0.947552 17.0298 0.947552C15.0254 0.947552 14.5971 2.64507 14.5043 3.37485C14.4115 2.64201 13.9814 0.951834 11.9813 0.951834C10.6821 0.951834 9.02963 1.21671 7.5632 1.21671C6.14897 1.21671 4.9097 0.970798 4.32922 0.00305866C4.32922 0.00305866 4.35048 0.72244 4.34758 1.99726C4.2282 1.99971 4.1093 2.00277 3.99572 2.00277C3.3263 2.00277 2.7695 1.94649 2.39443 1.80029C2.39443 1.80029 2.43358 2.88364 2.4186 4.85032L0 29.3625ZM25.0149 3.1424C25.259 3.1424 25.4828 3.13506 25.6882 3.12099C25.6631 6.44446 25.7747 15.5236 27.3745 27.2716C27.0782 27.2115 26.7828 27.1436 26.4886 27.0679C26.6781 26.9682 26.8284 26.8324 26.9299 26.6495C25.0961 16.8186 24.7273 7.73029 24.6722 3.13628C24.7882 3.13934 24.9037 3.1424 25.0149 3.1424ZM17.2183 2.51478C18.1999 2.51478 19.5136 2.66098 20.9032 2.81574C21.8737 2.92402 22.865 3.0329 23.7694 3.09407C23.8249 7.61773 24.1783 16.4938 25.8994 26.0996C25.7694 26.1271 25.5891 26.1485 25.3407 26.1485C24.4223 26.1485 23.1067 25.8531 21.8346 25.5668C20.402 25.245 18.921 24.9116 17.7127 24.9116C16.776 24.9116 16.0385 25.1343 15.457 25.475C15.4348 25.4866 15.4092 25.4952 15.3884 25.5074L15.385 4.09056C15.4019 3.78837 15.5701 2.51478 17.2183 2.51478ZM5.2432 3.09407C6.14752 3.0329 7.13787 2.92402 8.10792 2.81574C9.49798 2.66159 10.8117 2.51478 11.7943 2.51478C13.3888 2.51478 13.602 3.69417 13.6266 4.11564L13.6223 25.5068C13.5841 25.4854 13.5386 25.4683 13.4985 25.4481C12.9243 25.1245 12.2061 24.9129 11.2969 24.9129C10.0886 24.9129 8.60768 25.2469 7.17557 25.5686C5.90247 25.8555 4.58732 26.151 3.66898 26.151C3.42055 26.151 3.23978 26.1296 3.1117 26.1026C4.83333 16.4956 5.18665 7.61651 5.2432 3.09407ZM3.32388 3.12099C3.52978 3.13506 3.75308 3.1424 3.99717 3.1424C4.10833 3.1424 4.22433 3.13934 4.34033 3.13689C4.28475 7.72968 3.91548 16.8204 2.08075 26.6532C2.18177 26.8349 2.33063 26.9707 2.51768 27.0698C2.21753 27.1456 1.92222 27.2148 1.63512 27.2723C3.2364 15.5236 3.34853 6.44446 3.32388 3.12099Z" fill="black"/>
<path d="M11.3222 3.47472C12.5946 3.47472 13.0141 3.72485 13.0186 3.72743L13.1366 3.59334L13.2571 3.46225C13.208 3.43045 12.7369 3.14594 11.3356 3.14594C10.2808 3.14594 8.97862 3.37759 7.82321 3.5813C6.98119 3.73086 6.25174 3.86023 5.8342 3.86023L5.79999 4.1946C6.25967 4.1946 7.01045 4.06093 7.87775 3.90621C9.01829 3.70379 10.3046 3.47472 11.3222 3.47472Z" fill="black"/>
<path d="M11.3226 5.9017C12.5945 5.9017 13.015 6.40146 13.0189 6.40642L13.1366 6.14043L13.2571 5.87775C13.208 5.81084 12.7374 5.24335 11.3362 5.24335C10.2817 5.24335 8.97965 5.70428 7.82447 6.11482C6.98191 6.41137 6.25263 6.67075 5.83548 6.67075L5.79999 7.34067C6.25992 7.34067 7.01011 7.07303 7.87795 6.76574C9.01758 6.36016 10.3055 5.9017 11.3226 5.9017Z" fill="black"/>
<path d="M11.3229 8.71845C12.5945 8.71845 13.0137 8.96742 13.0185 8.97059L13.1361 8.83718L13.2571 8.70654C13.2076 8.67319 12.7364 8.38928 11.3363 8.38928C10.2825 8.38928 8.98093 8.61998 7.82566 8.82487C6.9829 8.97377 6.25305 9.10361 5.83667 9.10361L5.79999 9.43794C6.26019 9.43794 7.01101 9.30453 7.87806 9.15046C9.01809 8.94677 10.3053 8.71845 11.3229 8.71845Z" fill="black"/>
<path d="M11.1084 11.1448C12.5207 11.1448 12.9869 11.6446 12.9926 11.6491L13.1233 11.3832L13.2571 11.1197C13.2027 11.0549 12.6794 10.4866 11.1245 10.4866C9.95344 10.4866 8.50645 10.9475 7.22283 11.3581C6.28618 11.656 5.47607 11.9135 5.01189 11.9135L4.97144 12.5839C5.48177 12.5839 6.31781 12.3165 7.28144 12.0079C8.54898 11.6019 9.97834 11.1448 11.1084 11.1448Z" fill="black"/>
<path d="M11.1087 13.9612C12.5203 13.9612 12.987 14.2112 12.9911 14.2137L13.1231 14.0803L13.2571 13.9487C13.2018 13.9162 12.6793 13.6326 11.1244 13.6326C9.95444 13.6326 8.50773 13.8628 7.22402 14.0675C6.28663 14.2163 5.47669 14.3461 5.01257 14.3461L4.97144 14.6812C5.48177 14.6812 6.31659 14.5475 7.2814 14.3925C8.54835 14.1896 9.97729 13.9612 11.1087 13.9612Z" fill="black"/>
<path d="M11.1092 16.3874C12.5206 16.3874 12.9868 16.8865 12.9913 16.8921L13.1225 16.6258L13.2571 16.3629C13.2025 16.2977 12.6802 15.7299 11.1261 15.7299C9.95618 15.7299 8.50897 16.1912 7.22575 16.6005C6.28795 16.8991 5.47737 17.1578 5.01368 17.1578L4.97144 17.8272C5.48233 17.8272 6.31826 17.5602 7.28241 17.2517C8.54972 16.8445 9.97954 16.3874 11.1092 16.3874Z" fill="black"/>
<path d="M11.111 19.5323C12.522 19.5323 12.9873 20.0325 12.9922 20.0379L13.1234 19.771L13.2571 19.5082C13.2027 19.4425 12.6805 18.8759 11.1265 18.8759C9.95716 18.8759 8.51065 19.3372 7.22653 19.7449C6.28958 20.0433 5.47808 20.3027 5.0152 20.3027L4.97144 20.9732C5.48246 20.9732 6.31827 20.705 7.28294 20.3959C8.551 19.9896 9.98098 19.5323 11.111 19.5323Z" fill="black"/>
<path d="M10.8954 22.6797C12.4486 22.6797 12.9596 23.1783 12.9648 23.1835L13.1091 22.9165L13.2571 22.6546C13.1965 22.5892 12.6233 22.0219 10.9148 22.0219C9.62826 22.0219 8.03687 22.4826 6.62434 22.8921C5.59357 23.1912 4.70086 23.4479 4.19149 23.4479L4.14285 24.1192C4.704 24.1192 5.62338 23.8522 6.685 23.5435C8.0808 23.1373 9.65389 22.6797 10.8954 22.6797Z" fill="black"/>
<path d="M15.9824 3.72743C15.9863 3.72485 16.4059 3.47472 17.6783 3.47472C18.6969 3.47472 19.9827 3.70379 21.1227 3.90621C21.99 4.06093 22.7408 4.1946 23.2 4.1946L23.1658 3.86023C22.7482 3.86023 22.0188 3.73086 21.1768 3.5813C20.0224 3.37759 18.7197 3.14594 17.6649 3.14594C16.2645 3.14594 15.7924 3.43045 15.7429 3.46225L15.8639 3.59334L15.9824 3.72743Z" fill="black"/>
<path d="M17.664 5.24335C16.2622 5.24335 15.791 5.81106 15.7429 5.878L15.8634 6.14078L15.9806 6.40687C15.985 6.40274 16.4051 5.90196 17.6777 5.90196C18.6949 5.90196 19.982 6.35977 21.1218 6.76552C21.9892 7.07375 22.74 7.34067 23.2 7.34067L23.1645 6.67048C22.7483 6.67048 22.0184 6.41183 21.1757 6.11434C20.0209 5.70446 18.7187 5.24335 17.664 5.24335Z" fill="black"/>
<path d="M17.6636 8.38928C16.2632 8.38928 15.7919 8.67329 15.7429 8.70666L15.8634 8.83735L15.9811 8.97081C15.9854 8.96803 16.4057 8.71858 17.6769 8.71858C18.6952 8.71858 19.9813 8.94698 21.122 9.15036C21.9892 9.30448 22.7407 9.43794 23.2 9.43794L23.1643 9.10348C22.7473 9.10348 22.0178 8.97359 21.1744 8.82464C20.0204 8.61967 18.7176 8.38928 17.6636 8.38928Z" fill="black"/>
<path d="M17.8754 10.4866C16.3195 10.4866 15.7963 11.0543 15.7429 11.1199L15.8761 11.3836L16.0073 11.6495C16.0125 11.645 16.4782 11.145 17.8909 11.145C19.0215 11.145 20.4513 11.6023 21.7192 12.0077C22.6828 12.3164 23.5177 12.5839 24.0286 12.5839L23.9866 11.914C23.5229 11.914 22.7129 11.6564 21.7763 11.3584C20.4933 10.9476 19.0464 10.4866 17.8754 10.4866Z" fill="black"/>
<path d="M17.8741 13.6326C16.3187 13.6326 15.7972 13.9162 15.7429 13.9487L15.8769 14.0803L16.0074 14.2137C16.013 14.2112 16.4781 13.9612 17.8908 13.9612C19.0212 13.9612 20.4511 14.1896 21.7176 14.3925C22.6824 14.5475 23.5177 14.6812 24.0286 14.6812L23.9869 14.3461C23.5228 14.3461 22.7124 14.2163 21.776 14.0675C20.4923 13.8628 19.0456 13.6326 17.8741 13.6326Z" fill="black"/>
<path d="M17.8741 15.7299C16.3199 15.7299 15.798 16.2986 15.7429 16.3631L15.8775 16.6261L16.0088 16.8925C16.0127 16.8869 16.4789 16.3877 17.8905 16.3877C19.0197 16.3877 20.4501 16.8448 21.718 17.2515C22.6822 17.5601 23.5176 17.8272 24.0286 17.8272L23.9858 17.1576C23.5226 17.1576 22.712 16.8988 21.7756 16.6001C20.4918 16.1913 19.045 15.7299 17.8741 15.7299" fill="black"/>
<path d="M17.8735 18.8759C16.3195 18.8759 15.7978 19.4433 15.7429 19.5084L15.8761 19.7713L16.0078 20.0383C16.0122 20.0329 16.478 19.5325 17.8895 19.5325C19.019 19.5325 20.4495 19.9906 21.7171 20.3958C22.6817 20.705 23.518 20.9732 24.0286 20.9732L23.9843 20.3025C23.521 20.3025 22.7099 20.043 21.774 19.7445C20.4894 19.3374 19.0428 18.8759 17.8735 18.8759Z" fill="black"/>
<path d="M18.0856 22.0219C16.3767 22.0219 15.803 22.5898 15.7429 22.6546L15.8898 22.9165L16.0341 23.1835C16.0399 23.1783 16.5518 22.6797 18.1034 22.6797C19.3464 22.6797 20.9194 23.1373 22.3141 23.5435C23.3751 23.8522 24.295 24.1192 24.8571 24.1192L24.8075 23.4479C24.2981 23.4479 23.4055 23.1912 22.3753 22.8921C20.9628 22.4826 19.371 22.0219 18.0856 22.0219Z" fill="black"/>
</svg>
